<svg width="64" height="65" viewBox="0 0 64 65" fill="none" xmlns="http://www.w3.org/2000/svg">
  <g clip-path="url(#clip0_241_9795)">
    <path
      d="M16.1401 43.6444C14.5497 37.1101 12.6648 30.6308 11.4278 24.0298C8.87536 10.3486 18.0662 3.45693 28.7688 1.18524C30.5045 0.818075 32.303 0.792551 34.0838 0.596208C39.9741 -0.0615416 44.0502 3.03086 47.5353 7.22868C48.8017 8.75426 48.6996 10.4389 47.339 13.5352C46.6047 13.2368 45.8821 12.8559 45.1124 12.6419C41.6136 11.6719 38.1167 10.6784 34.5845 9.83219C32.3403 9.29617 31.2369 10.7138 31.5176 12.6576C31.8626 14.9575 32.5295 17.1975 33.4987 19.3116C34.9124 22.4119 34.8889 23.319 31.875 24.5874C29.9116 25.414 29.1478 26.6254 29.2165 28.6517C29.2391 29.5905 29.1187 30.5274 28.8592 31.4299C27.1274 37.6226 31.9516 44.7538 38.48 45.5882C38.8471 45.6354 39.4833 45.7649 39.554 45.6275C41.1365 42.6058 44.867 44.2668 47.0032 42.1935C47.6629 41.5534 50.129 41.5789 50.6042 42.1935C51.4799 43.3283 51.7115 45.115 51.8097 46.6563C51.9138 48.2879 50.9222 50.22 51.4975 51.5472C54.3524 58.1208 51.4151 64.9261 41.5959 64.4843C33.2808 64.1093 27.4592 58.9396 23.4165 52.2462C22.1246 50.11 23.0965 46.4659 23.3949 43.5482C23.6973 40.6031 24.6594 37.7109 24.9441 34.7579C25.2209 31.8619 22.7254 28.8323 19.9059 28.043C17.2906 27.3126 14.8285 29.0071 14.9051 31.7519C14.9522 33.3894 15.6296 35.0034 15.9476 36.6428C16.3914 38.9322 16.7644 41.2373 17.1689 43.5345L16.1401 43.6444ZM49.0138 45.7001C47.3076 46.1596 46.0372 46.3815 44.8729 46.8645C44.225 47.1334 43.7577 47.8364 43.2099 48.3449C43.9619 48.6296 44.7296 49.1833 45.4639 49.144C46.7107 49.0753 47.9359 48.6315 49.4222 48.2879C49.2906 47.4535 49.1571 46.6033 49.0138 45.7001Z"
      fill="#F2F2F2"/>
  </g>
  <defs>
    <clipPath id="clip0_241_9795">
      <rect width="41.5423" height="64" fill="white" transform="translate(11 0.5)"/>
    </clipPath>
  </defs>
</svg>
