<svg width="56" height="56" viewBox="0 0 56 56" fill="none" xmlns="http://www.w3.org/2000/svg">
  <g clip-path="url(#clip0_28_10878)">
    <path
      d="M39.5708 11.7743L31.4661 19.8708C31.3565 19.9822 31.2205 20.0642 31.0708 20.1092C30.9211 20.1541 30.7624 20.1606 30.6096 20.1281C29.9657 20.0033 29.3112 19.9422 28.6554 19.9457C26.2923 19.9413 24.0001 20.753 22.1662 22.2434C22.0979 22.3004 22.0147 22.3368 21.9265 22.3482C21.8382 22.3596 21.7486 22.3456 21.668 22.3078C21.5875 22.27 21.5194 22.21 21.4717 22.1349C21.4241 22.0597 21.399 21.9725 21.3992 21.8835V9.48794C21.3981 9.28641 21.4616 9.08982 21.5802 8.92692C21.6989 8.76402 21.8666 8.64334 22.0587 8.58254C27.8125 6.83695 34.0236 7.44301 39.3314 10.268C39.4634 10.336 39.5775 10.4341 39.6646 10.5544C39.7516 10.6747 39.8091 10.8138 39.8324 10.9605C39.8557 11.1072 39.8442 11.2572 39.7987 11.3986C39.7533 11.54 39.6752 11.6687 39.5708 11.7743V11.7743Z"
      fill="#FF8A4C"/>
    <path
      d="M51.1636 33.0426C49.9488 43.2544 41.7725 51.4926 31.5655 52.7612C26.1687 53.4572 20.7016 52.1877 16.1637 49.1849C11.6258 46.182 8.32007 41.6463 6.85089 36.4069C6.28425 34.4121 5.99869 32.348 6.00248 30.2742V0.553856C6.00248 0.303795 6.10182 0.0639755 6.27864 -0.112845C6.45546 -0.289665 6.69528 -0.389002 6.94534 -0.389002H7.27102C10.1073 -0.389159 12.8355 0.699027 14.8931 2.65117C16.9507 4.60331 18.1807 7.27057 18.3297 10.1029V10.1209C18.3378 10.3032 18.3459 10.4954 18.3459 10.6859V30.2742C18.3466 31.6569 18.6249 33.0254 19.1645 34.2984C19.7041 35.5715 20.4939 36.7232 21.487 37.6852C22.4801 38.6472 23.6564 39.3999 24.946 39.8987C26.2356 40.3974 27.6122 40.6321 28.9942 40.5887C34.2459 40.4258 38.6508 36.1643 38.9716 30.9191C39.0689 29.3898 38.823 27.858 38.2518 26.436C38.1781 26.2624 38.1573 26.0708 38.1921 25.8854C38.2268 25.7 38.3156 25.529 38.4472 25.3938L46.1546 17.6784C46.2551 17.5791 46.3766 17.5036 46.5101 17.4573C46.6436 17.411 46.7857 17.395 46.9261 17.4106C47.0666 17.4262 47.2017 17.473 47.3218 17.5475C47.4419 17.622 47.5438 17.7223 47.6201 17.8412C50.5637 22.3291 51.8193 27.7157 51.1636 33.0426Z"
      fill="white"/>
    <path
      d="M34.3696 31.0156H28.0758C27.8894 31.0152 27.7072 30.9597 27.5523 30.856C27.3974 30.7523 27.2767 30.6051 27.2053 30.4329C27.1339 30.2607 27.1151 30.0712 27.1512 29.8883C27.1873 29.7054 27.2767 29.5373 27.4081 29.4051L40.2124 16.6057C40.3 16.5181 40.404 16.4487 40.5184 16.4013C40.6328 16.3539 40.7554 16.3295 40.8793 16.3295C41.0031 16.3295 41.1257 16.3539 41.2401 16.4013C41.3546 16.4487 41.4585 16.5181 41.5461 16.6057C41.6337 16.6933 41.7031 16.7972 41.7505 16.9117C41.7979 17.0261 41.8223 17.1487 41.8223 17.2725C41.8223 17.3964 41.7979 17.519 41.7505 17.6334C41.7031 17.7479 41.6337 17.8518 41.5461 17.9394L30.3572 29.1283H34.3729C34.5001 29.123 34.6271 29.1435 34.7462 29.1885C34.8653 29.2336 34.9741 29.3022 35.0659 29.3904C35.1578 29.4785 35.2309 29.5844 35.2809 29.7015C35.3308 29.8186 35.3566 29.9446 35.3566 30.072C35.3566 30.1993 35.3308 30.3253 35.2809 30.4424C35.2309 30.5596 35.1578 30.6654 35.0659 30.7535C34.9741 30.8417 34.8653 30.9103 34.7462 30.9554C34.6271 31.0004 34.5001 31.0209 34.3729 31.0156H34.3696Z"
      fill="white"/>
  </g>
  <defs>
    <clipPath id="clip0_28_10878">
      <rect width="56" height="56" fill="white"/>
    </clipPath>
  </defs>
</svg>
